<?xml version="1.0" encoding="utf-8"?>
<!-- Generator: Adobe Illustrator 27.0.0, SVG Export Plug-In . SVG Version: 6.00 Build 0)  -->
<svg version="1.1" id="Calque_1" xmlns="http://www.w3.org/2000/svg" xmlns:xlink="http://www.w3.org/1999/xlink" x="0px" y="0px"
	 viewBox="0 0 190 180" style="enable-background:new 0 0 190 180;" xml:space="preserve">
<style type="text/css">
	.st0{fill:#F42331;}
	.st1{fill:#478CC4;}
	.st2{fill:#F4262C;}
</style>
<path class="st0" d="M169.79,82.05l-10.32,8.02l10.32,8.02c0.29-2.64,0.45-5.31,0.45-8.02C170.24,87.36,170.08,84.69,169.79,82.05z"
	/>
<g>
	<g>
		<path class="st1" d="M97.02,47.36c-11.48,0-21.92,4.56-29.6,11.96l30.92,27.25h37.64h3.59C137.79,64.66,119.39,47.36,97.02,47.36z
			"/>
		<path class="st1" d="M152.57,93.57h-1.61h-4.37h-7.02h-3.59H63.5v20.32h68.96c-1.71,2.54-3.7,4.88-5.91,7H67.49h-9.44
			c-0.54-0.68-1.06-1.37-1.56-2.07v-15.27V86.57h31.26L62.78,64.57l-5.26-4.63c1.42-1.86,2.97-3.61,4.63-5.25
			c8.98-8.85,21.29-14.32,34.87-14.32c26.23,0,47.77,20.43,49.58,46.21h5.98l15.91-12.38c-7.28-32.76-36.55-57.35-71.47-57.35
			c-20.59,0-39.2,8.55-52.52,22.28c-1.63,1.67-3.17,3.43-4.63,5.25C29.82,56.91,23.79,72.8,23.79,90.07
			c0,40.38,32.85,73.22,73.22,73.22c34.92,0,64.19-24.58,71.47-57.35l-10.52-8.19L152.57,93.57z"/>
	</g>
</g>
</svg>
